<?xml version="1.0" encoding="iso-8859-1"?>
<!-- Generator: Adobe Illustrator 19.0.0, SVG Export Plug-In . SVG Version: 6.00 Build 0)  -->
<svg version="1.1" id="Layer_1" xmlns="http://www.w3.org/2000/svg" xmlns:xlink="http://www.w3.org/1999/xlink" x="0px" y="0px"
	 viewBox="0 0 501.386 501.386" style="enable-background:new 0 0 501.386 501.386;" xml:space="preserve">
<path style="fill:#E2E2E2;" d="M465.056,190.007h-98.22v227.788h98.22c12.539,0,21.943-10.449,21.943-21.943V211.949
	C486.999,200.456,477.595,190.007,465.056,190.007z M453.563,384.358h-53.29V223.443h53.29V384.358z"/>
<path style="fill:#FFD15C;" d="M399.228,114.774v364.669c0,11.494-9.404,21.943-21.943,21.943H62.771
	c-11.494,0-21.943-9.404-21.943-21.943V114.774H399.228z"/>
<g>
	<path style="fill:#F8B64C;" d="M321.905,190.007c-13.584,0-25.078,11.494-25.078,25.078v208.98
		c0,13.584,11.494,25.078,25.078,25.078c13.584,0,25.078-11.494,25.078-25.078v-208.98
		C346.983,201.501,335.489,190.007,321.905,190.007z"/>
	<path style="fill:#F8B64C;" d="M220.55,190.007c-13.584,0-25.078,11.494-25.078,25.078v208.98
		c0,13.584,11.494,25.078,25.078,25.078s25.078-11.494,25.078-25.078v-208.98C244.583,201.501,234.134,190.007,220.55,190.007z"/>
	<path style="fill:#F8B64C;" d="M118.15,190.007c-13.584,0-25.078,11.494-25.078,25.078v208.98
		c0,13.584,11.494,25.078,25.078,25.078c13.584,0,25.078-11.494,25.078-25.078v-208.98
		C143.228,201.501,131.734,190.007,118.15,190.007z"/>
</g>
<path style="fill:#F2F2F2;" d="M401.318,136.717c0,0,79.412-50.155-14.629-107.624c0,0-51.2-22.988-96.131,6.269
	c0,0-80.457-83.592-167.184,6.269c0,0-61.649-29.257-89.861,8.359c-7.314,11.494-10.449,27.167-7.314,41.796
	c3.135,18.808,7.314,55.38-3.135,102.4c-10.449,49.11-9.404,87.771-7.314,106.58c1.045,11.494,14.629,41.796,47.02,33.437
	c18.808-4.18,29.257-24.033,30.302-42.841c2.09-27.167,6.269-77.322,7.314-136.882c0,0,1.045-18.808,25.078-18.808L401.318,136.717z
	"/>
<g>
</g>
<g>
</g>
<g>
</g>
<g>
</g>
<g>
</g>
<g>
</g>
<g>
</g>
<g>
</g>
<g>
</g>
<g>
</g>
<g>
</g>
<g>
</g>
<g>
</g>
<g>
</g>
<g>
</g>
</svg>
